<svg width="37" height="13" viewBox="0 0 37 13" fill="none" xmlns="http://www.w3.org/2000/svg">
<path d="M4.84375 3.54688V4.92188H0.078125V3.54688H4.84375ZM1.45312 1.47656H3.33594V9.66406C3.33594 9.92448 3.3724 10.125 3.44531 10.2656C3.52344 10.401 3.63021 10.4922 3.76562 10.5391C3.90104 10.5859 4.0599 10.6094 4.24219 10.6094C4.3724 10.6094 4.4974 10.6016 4.61719 10.5859C4.73698 10.5703 4.83333 10.5547 4.90625 10.5391L4.91406 11.9766C4.75781 12.0234 4.57552 12.0651 4.36719 12.1016C4.16406 12.138 3.92969 12.1562 3.66406 12.1562C3.23177 12.1562 2.84896 12.0807 2.51562 11.9297C2.18229 11.7734 1.92188 11.5208 1.73438 11.1719C1.54688 10.8229 1.45312 10.3594 1.45312 9.78125V1.47656ZM5.75 7.86719V7.6875C5.75 7.07812 5.83854 6.51302 6.01562 5.99219C6.19271 5.46615 6.44792 5.01042 6.78125 4.625C7.11979 4.23438 7.53125 3.93229 8.01562 3.71875C8.50521 3.5 9.05729 3.39062 9.67188 3.39062C10.2917 3.39062 10.8438 3.5 11.3281 3.71875C11.8177 3.93229 12.2318 4.23438 12.5703 4.625C12.9089 5.01042 13.1667 5.46615 13.3438 5.99219C13.5208 6.51302 13.6094 7.07812 13.6094 7.6875V7.86719C13.6094 8.47656 13.5208 9.04167 13.3438 9.5625C13.1667 10.0833 12.9089 10.5391 12.5703 10.9297C12.2318 11.3151 11.8203 11.6172 11.3359 11.8359C10.8516 12.0495 10.3021 12.1562 9.6875 12.1562C9.06771 12.1562 8.51302 12.0495 8.02344 11.8359C7.53906 11.6172 7.1276 11.3151 6.78906 10.9297C6.45052 10.5391 6.19271 10.0833 6.01562 9.5625C5.83854 9.04167 5.75 8.47656 5.75 7.86719ZM7.63281 7.6875V7.86719C7.63281 8.2474 7.67188 8.60677 7.75 8.94531C7.82812 9.28385 7.95052 9.58073 8.11719 9.83594C8.28385 10.0911 8.4974 10.2917 8.75781 10.4375C9.01823 10.5833 9.32812 10.6562 9.6875 10.6562C10.0365 10.6562 10.3385 10.5833 10.5938 10.4375C10.8542 10.2917 11.0677 10.0911 11.2344 9.83594C11.401 9.58073 11.5234 9.28385 11.6016 8.94531C11.6849 8.60677 11.7266 8.2474 11.7266 7.86719V7.6875C11.7266 7.3125 11.6849 6.95833 11.6016 6.625C11.5234 6.28646 11.3984 5.98698 11.2266 5.72656C11.0599 5.46615 10.8464 5.26302 10.5859 5.11719C10.3307 4.96615 10.026 4.89062 9.67188 4.89062C9.31771 4.89062 9.01042 4.96615 8.75 5.11719C8.49479 5.26302 8.28385 5.46615 8.11719 5.72656C7.95052 5.98698 7.82812 6.28646 7.75 6.625C7.67188 6.95833 7.63281 7.3125 7.63281 7.6875ZM15.2656 11.0625C15.2656 10.7708 15.3646 10.526 15.5625 10.3281C15.7604 10.125 16.0286 10.0234 16.3672 10.0234C16.7109 10.0234 16.9792 10.125 17.1719 10.3281C17.3698 10.526 17.4688 10.7708 17.4688 11.0625C17.4688 11.3542 17.3698 11.599 17.1719 11.7969C16.9792 11.9948 16.7109 12.0938 16.3672 12.0938C16.0286 12.0938 15.7604 11.9948 15.5625 11.7969C15.3646 11.599 15.2656 11.3542 15.2656 11.0625ZM24.4062 10.1094V0H26.8594V12H24.6562L24.4062 10.1094ZM19.1406 7.875V7.71094C19.1406 7.07031 19.2109 6.48698 19.3516 5.96094C19.4974 5.42969 19.7083 4.97396 19.9844 4.59375C20.2656 4.20833 20.612 3.91146 21.0234 3.70312C21.4349 3.49479 21.9062 3.39062 22.4375 3.39062C22.9271 3.39062 23.3542 3.5 23.7188 3.71875C24.0833 3.93229 24.3932 4.23438 24.6484 4.625C24.9089 5.01042 25.1198 5.46615 25.2812 5.99219C25.4427 6.51302 25.5651 7.07812 25.6484 7.6875V7.96875C25.5703 8.55208 25.4479 9.09635 25.2812 9.60156C25.1198 10.1068 24.9089 10.5521 24.6484 10.9375C24.3932 11.3177 24.0807 11.6172 23.7109 11.8359C23.3464 12.0495 22.9167 12.1562 22.4219 12.1562C21.8906 12.1562 21.4193 12.0495 21.0078 11.8359C20.6016 11.6224 20.2604 11.3229 19.9844 10.9375C19.7083 10.5521 19.4974 10.099 19.3516 9.57812C19.2109 9.05729 19.1406 8.48958 19.1406 7.875ZM21.5781 7.71094V7.875C21.5781 8.20833 21.6016 8.51823 21.6484 8.80469C21.7005 9.09115 21.7839 9.34375 21.8984 9.5625C22.013 9.78125 22.1641 9.95312 22.3516 10.0781C22.5391 10.1979 22.7682 10.2578 23.0391 10.2578C23.4036 10.2578 23.7031 10.1745 23.9375 10.0078C24.1719 9.83594 24.349 9.59896 24.4688 9.29688C24.5885 8.99479 24.651 8.64323 24.6562 8.24219V7.42188C24.6562 7.08854 24.6224 6.78906 24.5547 6.52344C24.487 6.25781 24.3854 6.03385 24.25 5.85156C24.1198 5.66927 23.9557 5.53125 23.7578 5.4375C23.5599 5.33854 23.3255 5.28906 23.0547 5.28906C22.7891 5.28906 22.5625 5.35156 22.375 5.47656C22.1875 5.59635 22.0339 5.76562 21.9141 5.98438C21.7995 6.20312 21.7135 6.46094 21.6562 6.75781C21.6042 7.04948 21.5781 7.36719 21.5781 7.71094ZM28.1328 7.85938V7.69531C28.1328 7.07552 28.2214 6.50521 28.3984 5.98438C28.5755 5.45833 28.8359 5.0026 29.1797 4.61719C29.5234 4.23177 29.9453 3.93229 30.4453 3.71875C30.9453 3.5 31.5182 3.39062 32.1641 3.39062C32.8203 3.39062 33.3984 3.5 33.8984 3.71875C34.4036 3.93229 34.8281 4.23177 35.1719 4.61719C35.5156 5.0026 35.776 5.45833 35.9531 5.98438C36.1302 6.50521 36.2188 7.07552 36.2188 7.69531V7.85938C36.2188 8.47396 36.1302 9.04427 35.9531 9.57031C35.776 10.0911 35.5156 10.5469 35.1719 10.9375C34.8281 11.3229 34.4062 11.6224 33.9062 11.8359C33.4062 12.0495 32.8307 12.1562 32.1797 12.1562C31.5339 12.1562 30.9583 12.0495 30.4531 11.8359C29.9479 11.6224 29.5234 11.3229 29.1797 10.9375C28.8359 10.5469 28.5755 10.0911 28.3984 9.57031C28.2214 9.04427 28.1328 8.47396 28.1328 7.85938ZM30.5781 7.69531V7.85938C30.5781 8.19271 30.6042 8.50521 30.6562 8.79688C30.7135 9.08854 30.8047 9.34375 30.9297 9.5625C31.0547 9.78125 31.2188 9.95312 31.4219 10.0781C31.6302 10.1979 31.8828 10.2578 32.1797 10.2578C32.4766 10.2578 32.7266 10.1979 32.9297 10.0781C33.1328 9.95312 33.2969 9.78125 33.4219 9.5625C33.5469 9.34375 33.6354 9.08854 33.6875 8.79688C33.7448 8.50521 33.7734 8.19271 33.7734 7.85938V7.69531C33.7734 7.36719 33.7448 7.0599 33.6875 6.77344C33.6354 6.48177 33.5469 6.22396 33.4219 6C33.2969 5.77604 33.1302 5.60156 32.9219 5.47656C32.7188 5.35156 32.4661 5.28906 32.1641 5.28906C31.8724 5.28906 31.625 5.35156 31.4219 5.47656C31.2188 5.60156 31.0547 5.77604 30.9297 6C30.8047 6.22396 30.7135 6.48177 30.6562 6.77344C30.6042 7.0599 30.5781 7.36719 30.5781 7.69531Z" fill="white"/>
</svg>
